<svg xmlns="http://www.w3.org/2000/svg" width="26" height="22" fill="none" viewBox="0 0 26 22">
    <path fill="#fff" fill-rule="evenodd" d="M25.5 11c0 .414-.165.812-.458 1.105-.293.293-.69.457-1.105.457H5.834l6.71 6.707c.145.145.26.318.339.507.079.19.119.393.119.599 0 .205-.04.409-.12.599-.078.19-.193.362-.338.507-.146.145-.318.26-.508.34-.19.078-.393.118-.598.118-.206 0-.41-.04-.6-.119-.189-.078-.361-.194-.507-.339L.956 12.106c-.145-.145-.26-.317-.34-.507-.078-.19-.119-.393-.119-.599 0-.206.04-.409.12-.599.078-.19.194-.362.34-.507L10.33.519c.294-.294.692-.458 1.107-.458.414 0 .812.164 1.106.458.293.293.458.691.458 1.106 0 .415-.165.813-.458 1.106l-6.71 6.706h18.104c.414 0 .811.165 1.104.458.293.293.458.69.458 1.105z" clip-rule="evenodd"/>
</svg>
