<svg xmlns="http://www.w3.org/2000/svg" width="24" height="24" fill="none" viewBox="0 0 24 24">
    <path fill="#000" d="M10.55 2.533c.406-.342.92-.53 1.45-.53.53 0 1.044.188 1.45.53l6.75 5.694c.508.428.8 1.057.8 1.72v2.819c-.571-.511-1.317-.784-2.083-.763-.766.02-1.495.335-2.038.876-.542.542-.856 1.271-.878 2.037-.022.767.25 1.512.761 2.084h-.514c-.706 0-1.336.325-1.748.833V14.75c0-.199-.079-.39-.22-.53-.14-.141-.331-.22-.53-.22h-3.5c-.199 0-.39.079-.53.22-.141.14-.22.331-.22.53v5c0 .464-.184.91-.513 1.237-.328.329-.773.513-1.237.513h-3c-.23 0-.457-.045-.67-.133-.212-.088-.405-.217-.567-.38-.163-.162-.292-.355-.38-.567-.088-.213-.133-.44-.133-.67V9.947c0-.663.292-1.292.8-1.72l6.75-5.694zM17 15c0-.53.21-1.04.586-1.414C17.96 13.21 18.47 13 19 13c.53 0 1.04.21 1.414.586.375.375.586.884.586 1.414 0 .53-.21 1.04-.586 1.414C20.04 16.79 19.53 17 19 17c-.53 0-1.04-.21-1.414-.586C17.21 16.04 17 15.53 17 15zm-.75 3c-.69 0-1.25.56-1.25 1.25v.003l.001.298.008.106c.055.496.233.97.519 1.38.546.78 1.586 1.463 3.472 1.463s2.926-.683 3.472-1.463c.285-.41.464-.884.519-1.38l.008-.106c.003-.07.002-.142.002-.213L23 19.25c0-.69-.56-1.25-1.25-1.25h-5.5z"/>
</svg>
